<svg width="649" height="137" viewBox="0 0 649 137" fill="none" xmlns="http://www.w3.org/2000/svg">
<path d="M25.5845 55.9771C23.7427 55.9771 22.1704 55.8423 20.8677 55.5728C19.5649 55.3032 18.3521 54.8652 17.229 54.2588C16.1284 53.6523 14.9492 52.8662 13.6914 51.9004L12.5122 55H1.62988V38.5923H12.4448C13.1411 40.479 14.208 41.8154 15.6455 42.6016C17.1055 43.3652 18.8911 43.7471 21.0024 43.7471C22.3052 43.7471 23.417 43.4888 24.3379 42.9722C25.2588 42.4331 25.7192 41.7256 25.7192 40.8496C25.7192 39.749 25.2476 38.9292 24.3042 38.3901C23.3608 37.8286 22.0356 37.312 20.3286 36.8403C18.1499 36.2563 16.1733 35.6387 14.3989 34.9873C12.647 34.3359 11.0747 33.6621 9.68213 32.9658C6.89697 31.5732 4.65088 29.5967 2.94385 27.0361C1.23682 24.4756 0.383301 21.0728 0.383301 16.8276C0.383301 13.5708 1.09082 10.6958 2.50586 8.20264C3.89844 5.73193 5.89746 3.81152 8.50293 2.44141C11.1309 1.04883 14.2192 0.352539 17.7681 0.352539C22.103 0.352539 25.5283 1.73389 28.0439 4.49658L29.7622 1.32959H39.4316V17.4004H29.0884C28.1226 15.3789 27.0557 13.9751 25.8877 13.189C24.7197 12.4028 23.1138 12.0098 21.0698 12.0098C19.52 12.0098 18.3184 12.2905 17.4648 12.8521C16.6113 13.3911 16.1846 14.1436 16.1846 15.1094C16.1846 16.1875 16.8022 17.0073 18.0376 17.5688C19.2505 18.1528 20.98 18.6919 23.2261 19.186C27.1567 20.0845 30.5483 21.2188 33.4009 22.5889C36.186 23.959 38.4097 25.9019 40.0718 28.4175C41.7563 30.9106 42.5986 34.1338 42.5986 38.0869C42.5986 41.4336 41.9023 44.4658 40.5098 47.1836C39.0947 49.9014 37.0845 52.0464 34.479 53.6187C31.896 55.1909 28.9312 55.9771 25.5845 55.9771ZM67.7661 55.6064C63.5884 55.6064 59.9609 54.8315 56.8838 53.2817C53.7842 51.7544 51.4033 49.5645 49.7412 46.7119C48.1016 43.8594 47.2817 40.5239 47.2817 36.7056C47.2817 32.9321 48.0903 29.6528 49.7075 26.8677C51.3022 24.105 53.5596 21.9712 56.4795 20.4663C59.3994 18.9614 62.8247 18.209 66.7554 18.209C70.3716 18.209 73.561 18.9165 76.3237 20.3315C79.0864 21.769 81.2202 23.8018 82.7251 26.4297C84.2524 29.0576 85.0161 32.1235 85.0161 35.6274C85.0161 36.8403 84.8364 37.9858 84.4771 39.064H63.4873C63.4873 41.1753 64.2847 42.8711 65.8794 44.1514C67.4741 45.4092 69.3945 46.0381 71.6406 46.0381C73.3477 46.0381 75.2231 45.7461 77.2671 45.1621C79.311 44.5557 81.3662 43.6235 83.4326 42.3657L84.0054 42.5679V51.6309C81.6919 52.9561 79.311 53.9556 76.8628 54.6294C74.437 55.2808 71.4048 55.6064 67.7661 55.6064ZM63.4873 32.1572V33.1343H72.1123V32.4268C72.1123 30.832 71.7417 29.4619 71.0005 28.3164C70.2817 27.1484 69.2036 26.5645 67.7661 26.5645C66.5757 26.5645 65.5649 27.1597 64.7339 28.3501C63.9028 29.5181 63.4873 30.7871 63.4873 32.1572ZM116.147 55H90.272V44.8589H94.6182V29.3271H90.272V20.2305L110.756 18.209V24.0713C111.475 22.9482 112.531 21.9487 113.923 21.0728C115.316 20.1743 116.798 19.478 118.371 18.9839C119.965 18.4673 121.392 18.209 122.649 18.209V32.4941C120.021 31.6182 117.854 31.1802 116.147 31.1802C113.991 31.1802 112.553 31.8091 111.834 33.0669C111.116 34.3022 110.756 35.9307 110.756 37.9521V44.8589H116.147V55ZM139.596 15.3789C136.789 15.3789 134.475 14.7163 132.656 13.3911C130.836 12.0659 129.927 10.1567 129.927 7.66357C129.927 5.17041 130.836 3.28369 132.656 2.00342C134.475 0.723145 136.811 0.0830078 139.664 0.0830078C142.516 0.0830078 144.83 0.711914 146.604 1.96973C148.401 3.22754 149.299 5.12549 149.299 7.66357C149.299 10.1567 148.378 12.0659 146.537 13.3911C144.717 14.7163 142.404 15.3789 139.596 15.3789ZM151.995 44.8589V55H127.164V44.8589H131.51V29.3271H127.164V21.0391L147.648 18.9165V44.8589H151.995ZM177.128 55.6064C173.041 55.6064 169.48 54.854 166.448 53.3491C163.371 51.8667 160.979 49.688 159.272 46.813C157.565 43.938 156.711 40.5239 156.711 36.5708C156.711 32.6401 157.565 29.3047 159.272 26.5645C160.979 23.8018 163.371 21.7241 166.448 20.3315C169.525 18.9165 173.085 18.209 177.128 18.209C181.284 18.209 184.889 18.9277 187.943 20.3652C191.021 21.8027 193.401 23.8916 195.086 26.6318C196.771 29.3496 197.613 32.6626 197.613 36.5708C197.613 40.5239 196.771 43.938 195.086 46.813C193.379 49.688 190.976 51.8779 187.876 53.3828C184.799 54.8652 181.216 55.6064 177.128 55.6064ZM177.128 45.7686C178.611 45.7686 179.711 45.0386 180.43 43.5786C181.126 42.1636 181.475 39.8276 181.475 36.5708C181.475 33.5835 181.126 31.4272 180.43 30.1021C179.756 28.7544 178.656 28.0806 177.128 28.0806C175.668 28.0806 174.59 28.7544 173.894 30.1021C173.198 31.4272 172.85 33.5835 172.85 36.5708C172.85 39.7603 173.209 42.0962 173.928 43.5786C174.646 45.0386 175.713 45.7686 177.128 45.7686ZM217.524 55.6064C210.292 55.6064 206.676 51.0806 206.676 42.0288V29.3271H202.33V20.2305L222.814 18.209V42.0288C222.814 42.9048 223.14 43.7134 223.791 44.4546C224.442 45.1733 225.206 45.5327 226.082 45.5327C227.093 45.5327 227.879 45.1958 228.44 44.522C229.024 43.8257 229.316 42.9722 229.316 41.9614V29.3271H226.082V20.2305L245.455 18.209V44.8589H249.801V55H229.316V49.7441C228.126 51.5859 226.531 53.0234 224.532 54.0566C222.556 55.0898 220.22 55.6064 217.524 55.6064ZM273.755 55.6064C269.151 55.6064 265.074 54.3936 261.525 51.9678L260.414 55H254.147V41.6919H261.66C261.952 43.3989 262.75 44.9263 264.052 46.2739C265.355 47.6216 266.86 48.2954 268.567 48.2954C269.218 48.2954 269.78 48.1157 270.251 47.7563C270.746 47.397 270.993 46.8018 270.993 45.9707C270.993 45.1396 270.521 44.3872 269.578 43.7134C268.612 43.0171 267.174 42.2197 265.265 41.3213C262.952 40.1758 261.065 39.1313 259.605 38.188C258.123 37.2446 256.842 36.0093 255.764 34.4819C254.686 32.9321 254.147 31.0791 254.147 28.9229C254.147 26.6992 254.877 24.7676 256.337 23.1279C257.797 21.5107 259.717 20.2866 262.098 19.4556C264.479 18.6245 267.073 18.209 269.881 18.209C273.542 18.209 276.945 19.1748 280.089 21.1064L280.932 18.9165H286.524V29.6641H280.022C279.46 28.2041 278.652 27.0586 277.596 26.2275C276.541 25.3965 275.305 24.981 273.89 24.981C272.228 24.981 271.397 25.5088 271.397 26.5645C271.419 27.2832 271.857 27.9009 272.711 28.4175C273.564 28.9116 274.946 29.5854 276.855 30.439C278.045 30.9331 279.135 31.4272 280.123 31.9214C281.111 32.4155 281.999 32.8872 282.785 33.3364C284.357 34.2573 285.727 35.5601 286.895 37.2446C288.063 38.9067 288.647 40.9844 288.647 43.4775C288.647 46.1279 287.962 48.3516 286.592 50.1484C285.222 51.9678 283.402 53.3379 281.134 54.2588C278.865 55.1572 276.406 55.6064 273.755 55.6064ZM334.636 43.1406V55H310.984V43.1406H316.308L325.539 13.2563H318.498V1.39697H351.886L363.846 43.1406H369.136V55H338.982V43.1406H343.362L341.913 37.4131H329.75L328.234 43.1406H334.636ZM340.296 29.2598L336.388 12.8521L331.469 29.2598H340.296ZM389.856 68.106C385.049 68.106 379.984 67.4209 374.661 66.0508V56.314C377.648 57.2349 380.119 57.9312 382.073 58.4028C384.027 58.897 385.948 59.144 387.834 59.144C393.27 59.144 395.988 56.4487 395.988 51.0581C394.752 52.1587 393.236 53.0908 391.439 53.8545C389.643 54.6182 387.61 55 385.341 55C382.084 55 379.333 54.1802 377.087 52.5405C374.841 50.9233 373.145 48.7334 372 45.9707C370.876 43.208 370.315 40.1421 370.315 36.7729C370.315 33.314 370.888 30.1919 372.033 27.4067C373.179 24.5991 374.875 22.3643 377.121 20.7021C379.389 19.04 382.129 18.209 385.341 18.209C389.766 18.209 393.315 20.1182 395.988 23.9365L398.414 18.9165H415.562V29.3271H412.328V50.4517C412.328 54.3374 411.396 57.5942 409.532 60.2222C407.69 62.8501 405.084 64.8154 401.715 66.1182C398.346 67.4434 394.393 68.106 389.856 68.106ZM391.709 45.7686C392.765 45.7686 393.73 45.4429 394.606 44.7915C395.482 44.1401 396.01 43.5 396.19 42.8711V30.5737C395.336 28.9116 393.753 28.0806 391.439 28.0806C389.598 28.0806 388.115 28.8779 386.992 30.4727C385.892 32.0674 385.341 34.2349 385.341 36.9751C385.341 39.603 385.892 41.7256 386.992 43.3428C388.115 44.96 389.688 45.7686 391.709 45.7686ZM440.595 55.6064C436.417 55.6064 432.79 54.8315 429.713 53.2817C426.613 51.7544 424.232 49.5645 422.57 46.7119C420.931 43.8594 420.111 40.5239 420.111 36.7056C420.111 32.9321 420.919 29.6528 422.537 26.8677C424.131 24.105 426.389 21.9712 429.309 20.4663C432.229 18.9614 435.654 18.209 439.584 18.209C443.201 18.209 446.39 18.9165 449.153 20.3315C451.916 21.769 454.049 23.8018 455.554 26.4297C457.082 29.0576 457.845 32.1235 457.845 35.6274C457.845 36.8403 457.666 37.9858 457.306 39.064H436.316C436.316 41.1753 437.114 42.8711 438.708 44.1514C440.303 45.4092 442.224 46.0381 444.47 46.0381C446.177 46.0381 448.052 45.7461 450.096 45.1621C452.14 44.5557 454.195 43.6235 456.262 42.3657L456.834 42.5679V51.6309C454.521 52.9561 452.14 53.9556 449.692 54.6294C447.266 55.2808 444.234 55.6064 440.595 55.6064ZM436.316 32.1572V33.1343H444.941V32.4268C444.941 30.832 444.571 29.4619 443.83 28.3164C443.111 27.1484 442.033 26.5645 440.595 26.5645C439.405 26.5645 438.394 27.1597 437.563 28.3501C436.732 29.5181 436.316 30.7871 436.316 32.1572ZM508.584 32.0898V45.2632H513.268V55H492.413V32.0225C492.413 31.0566 492.098 30.2031 491.469 29.4619C490.863 28.7207 490.122 28.3501 489.246 28.3501C487.606 28.3501 486.573 29.1699 486.146 30.8096C485.697 32.4941 485.472 34.8525 485.472 37.8848V45.2632H485.54V55H464.482V45.2632H469.368V29.3271H464.482V20.2305L485.472 18.209V23.2627C487.022 21.4209 488.785 20.1182 490.762 19.3545C492.738 18.5908 494.973 18.209 497.466 18.209C504.878 18.209 508.584 22.8359 508.584 32.0898ZM532.27 55.6064C529.013 55.6064 526.194 54.7417 523.813 53.0122C521.455 51.2827 519.658 48.9692 518.422 46.0718C517.209 43.1519 516.603 39.9399 516.603 36.436C516.603 33.269 517.232 30.2705 518.49 27.4404C519.748 24.6553 521.522 22.4204 523.813 20.7358C526.126 19.0513 528.855 18.209 532 18.209C534.291 18.209 536.256 18.5796 537.896 19.3208C539.536 20.062 541.063 21.1626 542.478 22.6226V13.7954H537.087V4.63135L558.684 2.40771V44.8589H562.962V55H542.208V50.6538C541.108 52.1362 539.704 53.3267 537.997 54.2251C536.29 55.1011 534.381 55.5615 532.27 55.6064ZM537.66 45.7686C538.716 45.7686 539.67 45.5215 540.524 45.0273C541.377 44.5107 542.029 43.9043 542.478 43.208V30.439C541.961 29.8325 541.265 29.2935 540.389 28.8218C539.536 28.3276 538.626 28.0806 537.66 28.0806C535.908 28.0806 534.482 28.7993 533.381 30.2368C532.281 31.6519 531.73 33.7183 531.73 36.436C531.73 39.1987 532.236 41.4448 533.247 43.1743C534.257 44.9038 535.729 45.7686 537.66 45.7686ZM580.246 55.6064C577.955 55.6064 575.877 55.1572 574.013 54.2588C572.126 53.3828 570.622 52.1138 569.499 50.4517C568.375 48.7896 567.814 46.8579 567.814 44.6567C567.814 42.2759 568.477 40.2544 569.802 38.5923C571.127 36.9751 572.856 35.7622 574.99 34.9536C577.146 34.145 579.471 33.7407 581.964 33.7407C584.907 33.7407 587.737 34.1787 590.455 35.0547V33.5386C590.455 31.7417 589.691 30.3716 588.164 29.4282C586.659 28.4849 584.615 28.0132 582.032 28.0132C580.931 28.0132 579.696 28.1479 578.326 28.4175C576.956 28.687 575.619 29.0576 574.316 29.5293C573.014 30.001 571.879 30.5288 570.914 31.1128L569.937 30.7085V20.9043C572.654 19.9385 575.428 19.2534 578.258 18.8491C581.088 18.4224 583.728 18.209 586.176 18.209C599.832 18.209 606.66 22.0498 606.66 29.7314V44.8589H609.827V55H592.577L591.061 49.4746C590.095 51.3613 588.59 52.855 586.546 53.9556C584.502 55.0562 582.402 55.6064 580.246 55.6064ZM586.58 46.9814C587.321 46.9814 588.074 46.8579 588.837 46.6108C589.624 46.3638 590.163 46.1055 590.455 45.8359V40.1758C590.118 40.1309 589.579 39.9961 588.837 39.7715C588.074 39.5693 587.411 39.4683 586.85 39.4683C585.659 39.4683 584.705 39.8389 583.986 40.5801C583.29 41.3213 582.941 42.3096 582.941 43.5449C582.941 44.4658 583.267 45.2744 583.918 45.9707C584.592 46.6445 585.479 46.9814 586.58 46.9814ZM633.984 55.6064C629.379 55.6064 625.303 54.3936 621.754 51.9678L620.642 55H614.375V41.6919H621.889C622.181 43.3989 622.978 44.9263 624.281 46.2739C625.583 47.6216 627.088 48.2954 628.795 48.2954C629.447 48.2954 630.008 48.1157 630.48 47.7563C630.974 47.397 631.221 46.8018 631.221 45.9707C631.221 45.1396 630.75 44.3872 629.806 43.7134C628.84 43.0171 627.403 42.2197 625.494 41.3213C623.18 40.1758 621.293 39.1313 619.833 38.188C618.351 37.2446 617.071 36.0093 615.993 34.4819C614.915 32.9321 614.375 31.0791 614.375 28.9229C614.375 26.6992 615.105 24.7676 616.565 23.1279C618.025 21.5107 619.946 20.2866 622.327 19.4556C624.708 18.6245 627.302 18.209 630.109 18.209C633.771 18.209 637.173 19.1748 640.318 21.1064L641.16 18.9165H646.753V29.6641H640.25C639.689 28.2041 638.88 27.0586 637.825 26.2275C636.769 25.3965 635.534 24.981 634.119 24.981C632.457 24.981 631.625 25.5088 631.625 26.5645C631.648 27.2832 632.086 27.9009 632.939 28.4175C633.793 28.9116 635.174 29.5854 637.083 30.439C638.274 30.9331 639.363 31.4272 640.352 31.9214C641.34 32.4155 642.227 32.8872 643.013 33.3364C644.585 34.2573 645.956 35.5601 647.124 37.2446C648.292 38.9067 648.875 40.9844 648.875 43.4775C648.875 46.1279 648.19 48.3516 646.82 50.1484C645.45 51.9678 643.631 53.3379 641.362 54.2588C639.094 55.1572 636.634 55.6064 633.984 55.6064ZM60.9268 124.977C59.085 124.977 57.5127 124.842 56.21 124.573C54.9072 124.303 53.6943 123.865 52.5713 123.259C51.4707 122.652 50.2915 121.866 49.0337 120.9L47.8545 124H36.9722V107.592H47.7871C48.4834 109.479 49.5503 110.815 50.9878 111.602C52.4478 112.365 54.2334 112.747 56.3447 112.747C57.6475 112.747 58.7593 112.489 59.6802 111.972C60.6011 111.433 61.0615 110.726 61.0615 109.85C61.0615 108.749 60.5898 107.929 59.6465 107.39C58.7031 106.829 57.3779 106.312 55.6709 105.84C53.4922 105.256 51.5156 104.639 49.7412 103.987C47.9893 103.336 46.417 102.662 45.0244 101.966C42.2393 100.573 39.9932 98.5967 38.2861 96.0361C36.5791 93.4756 35.7256 90.0728 35.7256 85.8276C35.7256 82.5708 36.4331 79.6958 37.8481 77.2026C39.2407 74.7319 41.2397 72.8115 43.8452 71.4414C46.4731 70.0488 49.5615 69.3525 53.1104 69.3525C57.4453 69.3525 60.8706 70.7339 63.3862 73.4966L65.1045 70.3296H74.7739V86.4004H64.4307C63.4648 84.3789 62.3979 82.9751 61.23 82.189C60.062 81.4028 58.4561 81.0098 56.4121 81.0098C54.8623 81.0098 53.6606 81.2905 52.8071 81.8521C51.9536 82.3911 51.5269 83.1436 51.5269 84.1094C51.5269 85.1875 52.1445 86.0073 53.3799 86.5688C54.5928 87.1528 56.3223 87.6919 58.5684 88.186C62.499 89.0845 65.8906 90.2188 68.7432 91.5889C71.5283 92.959 73.752 94.9019 75.4141 97.4175C77.0986 99.9106 77.9409 103.134 77.9409 107.087C77.9409 110.434 77.2446 113.466 75.8521 116.184C74.437 118.901 72.4268 121.046 69.8213 122.619C67.2383 124.191 64.2734 124.977 60.9268 124.977ZM95.8311 84.3789C93.0234 84.3789 90.71 83.7163 88.8906 82.3911C87.0713 81.0659 86.1616 79.1567 86.1616 76.6636C86.1616 74.1704 87.0713 72.2837 88.8906 71.0034C90.71 69.7231 93.0459 69.083 95.8984 69.083C98.751 69.083 101.064 69.7119 102.839 70.9697C104.636 72.2275 105.534 74.1255 105.534 76.6636C105.534 79.1567 104.613 81.0659 102.771 82.3911C100.952 83.7163 98.6387 84.3789 95.8311 84.3789ZM108.229 113.859V124H83.3989V113.859H87.7451V98.3271H83.3989V90.0391L103.883 87.9165V113.859H108.229ZM140.775 113.859V124H113.519V113.859H119.449V82.7954H113.519V73.6313L135.587 71.4077V113.859H140.775ZM173.726 113.859V124H146.469V113.859H152.399V82.7954H146.469V73.6313L168.537 71.4077V113.859H173.726ZM213.077 126.055V136.702H189.763V126.055H196.602L198.455 122.956L182.721 98.3271H178.442V87.9165H203.711V98.3271H200.375L205.968 108.67L211.089 98.3271H207.417V87.9165H226.25V98.3271H222.612L207.889 126.055H213.077ZM271.094 112.141V124H248.453V112.141H254.956V82.2563H248.453V70.397H277.36L287.771 96.2046L298.081 70.397H325.034V82.2563H318.565V112.141H325.034V124H296.969V112.141H301.315V92.1279L289.456 124H279.719L265.703 91.353V112.141H271.094ZM349.19 124.606C345.103 124.606 341.542 123.854 338.51 122.349C335.433 120.867 333.041 118.688 331.334 115.813C329.627 112.938 328.773 109.524 328.773 105.571C328.773 101.64 329.627 98.3047 331.334 95.5645C333.041 92.8018 335.433 90.7241 338.51 89.3315C341.587 87.9165 345.147 87.209 349.19 87.209C353.346 87.209 356.951 87.9277 360.005 89.3652C363.083 90.8027 365.463 92.8916 367.148 95.6318C368.833 98.3496 369.675 101.663 369.675 105.571C369.675 109.524 368.833 112.938 367.148 115.813C365.441 118.688 363.038 120.878 359.938 122.383C356.861 123.865 353.278 124.606 349.19 124.606ZM349.19 114.769C350.673 114.769 351.773 114.039 352.492 112.579C353.188 111.164 353.537 108.828 353.537 105.571C353.537 102.583 353.188 100.427 352.492 99.1021C351.818 97.7544 350.718 97.0806 349.19 97.0806C347.73 97.0806 346.652 97.7544 345.956 99.1021C345.26 100.427 344.912 102.583 344.912 105.571C344.912 108.76 345.271 111.096 345.99 112.579C346.708 114.039 347.775 114.769 349.19 114.769ZM442.987 101.09V114.263H447.67V124H426.849V101.022C426.849 100.057 426.535 99.2031 425.906 98.4619C425.277 97.7207 424.524 97.3501 423.648 97.3501C422.009 97.3501 420.976 98.1699 420.549 99.8096C420.1 101.494 419.875 103.853 419.875 106.885V124H403.703V101.022C403.703 100.057 403.389 99.2031 402.76 98.4619C402.153 97.7207 401.412 97.3501 400.536 97.3501C398.896 97.3501 397.863 98.1699 397.437 99.8096C396.987 101.494 396.763 103.853 396.763 106.885V114.263H396.83V124H375.773V114.263H380.658V98.3271H375.773V89.2305L396.763 87.209V92.2627C398.312 90.4209 400.076 89.1182 402.052 88.3545C404.029 87.5908 406.264 87.209 408.757 87.209C413.855 87.209 417.191 89.3765 418.763 93.7114C420.425 91.353 422.334 89.6797 424.491 88.6914C426.647 87.7031 429.106 87.209 431.869 87.209C439.281 87.209 442.987 91.8359 442.987 101.09ZM471.153 124.606C466.976 124.606 463.348 123.832 460.271 122.282C457.171 120.754 454.791 118.564 453.128 115.712C451.489 112.859 450.669 109.524 450.669 105.706C450.669 101.932 451.478 98.6528 453.095 95.8677C454.689 93.105 456.947 90.9712 459.867 89.4663C462.787 87.9614 466.212 87.209 470.143 87.209C473.759 87.209 476.948 87.9165 479.711 89.3315C482.474 90.769 484.607 92.8018 486.112 95.4297C487.64 98.0576 488.403 101.124 488.403 104.627C488.403 105.84 488.224 106.986 487.864 108.064H466.875C466.875 110.175 467.672 111.871 469.267 113.151C470.861 114.409 472.782 115.038 475.028 115.038C476.735 115.038 478.61 114.746 480.654 114.162C482.698 113.556 484.753 112.624 486.82 111.366L487.393 111.568V120.631C485.079 121.956 482.698 122.956 480.25 123.629C477.824 124.281 474.792 124.606 471.153 124.606ZM466.875 101.157V102.134H475.5V101.427C475.5 99.832 475.129 98.4619 474.388 97.3164C473.669 96.1484 472.591 95.5645 471.153 95.5645C469.963 95.5645 468.952 96.1597 468.121 97.3501C467.29 98.5181 466.875 99.7871 466.875 101.157ZM539.143 101.09V114.263H543.826V124H522.971V101.022C522.971 100.057 522.656 99.2031 522.027 98.4619C521.421 97.7207 520.68 97.3501 519.804 97.3501C518.164 97.3501 517.131 98.1699 516.704 99.8096C516.255 101.494 516.03 103.853 516.03 106.885V114.263H516.098V124H495.041V114.263H499.926V98.3271H495.041V89.2305L516.03 87.209V92.2627C517.58 90.4209 519.343 89.1182 521.32 88.3545C523.296 87.5908 525.531 87.209 528.024 87.209C535.437 87.209 539.143 91.8359 539.143 101.09ZM564.209 124.606C555.562 124.606 551.238 120.103 551.238 111.096V97.7881H545.847V87.9165H551.238V80.2012L567.376 76.5962V87.9165H573.845V97.7881H567.376V109.917C567.376 110.928 567.758 111.77 568.521 112.444C569.285 113.118 570.24 113.455 571.385 113.455C572.216 113.455 573.036 113.387 573.845 113.252V122.619C570.88 123.944 567.668 124.606 564.209 124.606ZM598.642 124.606C594.037 124.606 589.96 123.394 586.412 120.968L585.3 124H579.033V110.692H586.546C586.838 112.399 587.636 113.926 588.938 115.274C590.241 116.622 591.746 117.295 593.453 117.295C594.104 117.295 594.666 117.116 595.138 116.756C595.632 116.397 595.879 115.802 595.879 114.971C595.879 114.14 595.407 113.387 594.464 112.713C593.498 112.017 592.061 111.22 590.151 110.321C587.838 109.176 585.951 108.131 584.491 107.188C583.009 106.245 581.729 105.009 580.65 103.482C579.572 101.932 579.033 100.079 579.033 97.9229C579.033 95.6992 579.763 93.7676 581.223 92.1279C582.683 90.5107 584.604 89.2866 586.984 88.4556C589.365 87.6245 591.959 87.209 594.767 87.209C598.428 87.209 601.831 88.1748 604.976 90.1064L605.818 87.9165H611.411V98.6641H604.908C604.347 97.2041 603.538 96.0586 602.482 95.2275C601.427 94.3965 600.191 93.981 598.776 93.981C597.114 93.981 596.283 94.5088 596.283 95.5645C596.306 96.2832 596.744 96.9009 597.597 97.4175C598.451 97.9116 599.832 98.5854 601.741 99.439C602.932 99.9331 604.021 100.427 605.009 100.921C605.998 101.416 606.885 101.887 607.671 102.336C609.243 103.257 610.613 104.56 611.781 106.245C612.949 107.907 613.533 109.984 613.533 112.478C613.533 115.128 612.848 117.352 611.478 119.148C610.108 120.968 608.289 122.338 606.02 123.259C603.751 124.157 601.292 124.606 598.642 124.606Z" fill="#E166C6"/>
</svg>
