<svg width="241" height="134" viewBox="0 0 241 134" fill="none" xmlns="http://www.w3.org/2000/svg">
<path d="M12.8057 37.8066C12.9893 37.8066 13.1576 37.8219 13.3105 37.8525C13.7083 37.9137 13.9072 38.2962 13.9072 39H0.917969V37.8066C1.31576 37.8066 1.66764 37.776 1.97363 37.7148C3.0446 37.5312 3.58008 36.7663 3.58008 35.4199V20.457H0.917969V19.2637H8.9502L9.27148 23.5322C9.60807 22.6755 10.0977 21.8799 10.7402 21.1455C12.1784 19.6462 13.846 18.8965 15.7432 18.8965C16.141 18.8965 16.5234 18.9424 16.8906 19.0342C18.39 19.432 19.1396 20.3958 19.1396 21.9258C19.1396 22.3542 19.0479 22.7673 18.8643 23.165C18.3441 24.3278 17.472 24.9092 16.248 24.9092C15.8809 24.9092 15.5443 24.8633 15.2383 24.7715C14.5957 24.5267 13.999 23.9147 13.4482 22.9355C13.0505 22.2318 12.6833 21.8799 12.3467 21.8799C12.1631 21.8799 11.9642 21.9258 11.75 22.0176C10.4036 22.7214 9.62337 24.6797 9.40918 27.8926V37.8066H12.8057ZM37.1777 39.459C34.7298 39.306 33.1846 37.9137 32.542 35.2822C32.389 35.7106 32.1901 36.1237 31.9453 36.5215C30.7214 38.4798 28.8089 39.459 26.208 39.459C25.3512 39.459 24.571 39.3519 23.8672 39.1377C21.4805 38.3727 20.2871 36.6286 20.2871 33.9053C20.3177 29.8968 24.265 27.8161 32.1289 27.6631V24.6797C32.1289 23.7923 32.0677 23.0273 31.9453 22.3848C31.6393 20.6406 30.7673 19.7686 29.3291 19.7686C28.9007 19.7686 28.5182 19.8451 28.1816 19.998C27.6615 20.304 27.2331 21.069 26.8965 22.293C26.7741 22.7214 26.6823 23.0273 26.6211 23.2109C26.1621 24.4961 25.2747 25.1387 23.959 25.1387C23.653 25.1387 23.3623 25.0928 23.0869 25.001C21.9548 24.695 21.3887 23.9453 21.3887 22.752C21.3887 22.2318 21.5264 21.7422 21.8018 21.2832C22.8727 19.4779 25.4889 18.5752 29.6504 18.5752C30.7214 18.5752 31.7158 18.6823 32.6338 18.8965C36.1833 19.7839 37.958 22.14 37.958 25.9648V35.5576C37.958 37.0264 38.2946 37.7913 38.9678 37.8525C39.8551 37.8219 40.3906 36.751 40.5742 34.6396L41.7676 34.6855C41.6758 35.6341 41.5381 36.4144 41.3545 37.0264C40.8037 38.6481 39.4115 39.459 37.1777 39.459ZM28.5947 37.4854C28.8089 37.4854 29.0537 37.4395 29.3291 37.3477C30.6143 36.8581 31.5475 35.5423 32.1289 33.4004V28.9482C30.752 29.0094 29.6198 29.1777 28.7324 29.4531C27.0801 30.0651 26.2539 31.3809 26.2539 33.4004C26.2845 36.0625 27.0648 37.4242 28.5947 37.4854ZM52.5537 37.8066C52.7373 37.8066 52.9056 37.8219 53.0586 37.8525C53.4564 37.9137 53.6553 38.2962 53.6553 39H42.915V37.8066C43.1598 37.8066 43.3893 37.7913 43.6035 37.7607C44.9193 37.6077 45.5771 36.8275 45.5771 35.4199V20.457H42.915V19.2637H51.085L51.3145 22.8438C51.5898 22.293 51.957 21.7575 52.416 21.2373C53.9766 19.4626 55.8737 18.5752 58.1074 18.5752C58.903 18.5752 59.668 18.6976 60.4023 18.9424C63.0951 19.891 64.4414 22.2624 64.4414 26.0566V37.8066H65.9561C66.1396 37.8066 66.3232 37.8219 66.5068 37.8525C66.9046 37.9137 67.1035 38.2962 67.1035 39H56.501V37.8066C56.9294 37.8066 57.2965 37.7607 57.6025 37.6689C58.2757 37.4548 58.6123 36.7051 58.6123 35.4199V25.2764C58.6123 24.848 58.5817 24.4349 58.5205 24.0371C58.2145 21.987 57.1895 20.9619 55.4453 20.9619C54.9863 20.9619 54.5426 21.069 54.1143 21.2832C52.5537 22.0482 51.6663 23.6393 51.4521 26.0566L51.4062 37.8066H52.5537ZM85.0957 39L84.4531 34.6855C84.3001 35.0833 84.1165 35.4658 83.9023 35.833C82.5254 38.2503 80.4141 39.459 77.5684 39.459C75.8548 39.459 74.2943 38.9388 72.8867 37.8984C70.4082 36.0931 69.1689 33.2933 69.1689 29.499C69.1689 26.4391 69.9645 23.8994 71.5557 21.8799C73.3916 19.6462 75.763 18.5293 78.6699 18.5293C80.8424 18.5293 82.709 19.2025 84.2695 20.5488V10.3594H80.0928V9.16602H90.0986V37.7607H92.21C92.4242 37.7607 92.6077 37.776 92.7607 37.8066C93.1279 37.8984 93.3115 38.2962 93.3115 39H85.0957ZM75.457 28.9482C75.457 30.111 75.5335 31.1667 75.6865 32.1152C76.2067 35.6035 77.5378 37.3477 79.6797 37.3477C80.3223 37.3477 80.9189 37.1794 81.4697 36.8428C83.3975 35.5882 84.3613 32.666 84.3613 28.0762C84.3613 27.0358 84.3001 26.0566 84.1777 25.1387C83.6576 21.7422 82.2959 20.0439 80.0928 20.0439C79.4808 20.0439 78.8994 20.1969 78.3486 20.5029C76.4209 21.6657 75.457 24.4808 75.457 28.9482ZM101.665 29.04C101.665 31.9163 101.849 34.0124 102.216 35.3281C102.767 37.2865 103.991 38.2656 105.888 38.2656C106.959 38.2656 107.831 37.9443 108.504 37.3018C109.667 36.139 110.248 33.3239 110.248 28.8564C110.248 26.0719 110.064 24.0371 109.697 22.752C109.146 20.763 107.892 19.7686 105.934 19.7686C104.771 19.7686 103.868 20.1204 103.226 20.8242C102.185 22.0176 101.665 24.7562 101.665 29.04ZM106.163 18.5752C108.795 18.5752 111.044 19.2943 112.91 20.7324C115.327 22.6602 116.536 25.3376 116.536 28.7646C116.536 31.335 115.771 33.5993 114.241 35.5576C112.191 38.1585 109.361 39.459 105.75 39.459C103.118 39.459 100.854 38.6634 98.957 37.0723C96.5703 35.0527 95.377 32.3141 95.377 28.8564C95.377 26.4085 96.0807 24.2666 97.4883 22.4307C99.5078 19.8604 102.399 18.5752 106.163 18.5752ZM128.148 37.8066C128.332 37.8066 128.5 37.8219 128.653 37.8525C129.051 37.9137 129.25 38.2962 129.25 39H118.831V37.8066C119.076 37.8066 119.305 37.7913 119.52 37.7607C120.835 37.6077 121.493 36.8275 121.493 35.4199V20.457H118.831V19.2637H127.001L127.23 22.6143C128.577 19.9521 130.719 18.6058 133.656 18.5752C134.146 18.5752 134.635 18.6364 135.125 18.7588C136.992 19.3096 138.292 20.6712 139.026 22.8438C140.495 20.0286 142.714 18.6058 145.682 18.5752C146.753 18.5752 147.747 18.8659 148.665 19.4473C150.654 20.7018 151.648 22.8285 151.648 25.8271V37.8066H153.163C153.347 37.8066 153.53 37.8219 153.714 37.8525C154.112 37.9137 154.311 38.2962 154.311 39H143.846V37.8066C144.335 37.8066 144.718 37.7607 144.993 37.6689C145.575 37.4242 145.865 36.6745 145.865 35.4199V25.2764C145.865 24.5114 145.773 23.8076 145.59 23.165C145.1 21.6045 144.198 20.8242 142.882 20.8242C142.576 20.8242 142.27 20.8854 141.964 21.0078C140.526 21.6198 139.7 23.1956 139.485 25.7354V26.0566V37.8066H140.266C140.449 37.8066 140.633 37.8219 140.816 37.8525C141.214 37.9137 141.413 38.2962 141.413 39H131.683V37.8066C132.172 37.8066 132.555 37.7607 132.83 37.6689C133.411 37.4242 133.702 36.6745 133.702 35.4199V25.2764C133.702 24.4502 133.595 23.7005 133.381 23.0273C132.891 21.6198 132.08 20.916 130.948 20.916C130.55 20.916 130.153 21.0231 129.755 21.2373C128.347 21.9717 127.552 23.5475 127.368 25.9648L127.322 37.8066H128.148Z" fill="white" fill-opacity="0.72"/>
<path d="M24.7632 95.1406V107H2.12256V95.1406H8.625V65.2563H2.12256V53.397H31.0298L41.4404 79.2046L51.75 53.397H78.7031V65.2563H72.2344V95.1406H78.7031V107H50.6382V95.1406H54.9844V75.1279L43.125 107H33.3882L19.3726 74.353V95.1406H24.7632ZM128.398 84.1572V107H83.1504V95.1406H89.6528V65.2563H83.1504V53.397H128.398V74.7236H119.773L116.539 65.2563H106.903V74.0161H115.528V82.8433H106.903V95.1406H116.539L119.773 84.1572H128.398ZM177.25 84.1572V107H132.003V95.1406H138.505V65.2563H132.003V53.397H177.25V74.7236H168.625L165.391 65.2563H155.755V74.0161H164.38V82.8433H155.755V95.1406H165.391L168.625 84.1572H177.25ZM219.904 94.8711V107H189.885V94.8711H195.41V65.2563H190.66L189.211 74.4878H179.744V53.397H230.18V74.4878H220.746L219.297 65.2563H214.378V94.8711H219.904Z" fill="white" fill-opacity="0.72"/>
</svg>
