<svg width="76" height="80" viewBox="0 0 76 80" fill="none" xmlns="http://www.w3.org/2000/svg">
<circle cx="38" cy="42" r="38" fill="#8623B5"/>
<path d="M43.0723 57.2227C43.3457 57.2227 43.5964 57.2454 43.8242 57.291C44.4167 57.3822 44.7129 57.9518 44.7129 59H25.3672V57.2227C25.9596 57.2227 26.4837 57.1771 26.9395 57.0859C28.5345 56.8125 29.332 55.6732 29.332 53.668V31.3828H25.3672V29.6055H37.3301L37.8086 35.9629C38.3099 34.6868 39.0391 33.502 39.9961 32.4082C42.138 30.1751 44.6217 29.0586 47.4473 29.0586C48.0397 29.0586 48.6094 29.127 49.1562 29.2637C51.3893 29.8561 52.5059 31.2917 52.5059 33.5703C52.5059 34.2083 52.3691 34.8236 52.0957 35.416C51.321 37.1478 50.0221 38.0137 48.1992 38.0137C47.6523 38.0137 47.151 37.9453 46.6953 37.8086C45.7383 37.444 44.8496 36.5326 44.0293 35.0742C43.4368 34.026 42.89 33.502 42.3887 33.502C42.1152 33.502 41.819 33.5703 41.5 33.707C39.4948 34.7552 38.3327 37.6719 38.0137 42.457V57.2227H43.0723Z" fill="black" fill-opacity="0.72"/>
</svg>
